<svg width="296" height="167" viewBox="0 0 296 167" fill="none" xmlns="http://www.w3.org/2000/svg">
<rect y="2" width="296" height="165" rx="15" fill="url(#paint0_linear_56_10)"/>
<path d="M47.728 112.424C52.592 112.424 56.176 111.784 58.48 110.504C60.8693 109.224 62.064 107.176 62.064 104.36C62.064 101.459 60.912 99.1547 58.608 97.448C56.304 95.7413 52.5067 93.8213 47.216 91.688C44.656 90.664 42.1813 89.64 39.792 88.616C37.488 87.5067 35.4827 86.2267 33.776 84.776C32.0693 83.3253 30.704 81.576 29.68 79.528C28.656 77.48 28.144 74.9627 28.144 71.976C28.144 66.088 30.32 61.4373 34.672 58.024C39.024 54.5253 44.9547 52.776 52.464 52.776C54.3413 52.776 56.2187 52.904 58.096 53.16C59.9733 53.3307 61.7227 53.5867 63.344 53.928C64.9653 54.184 66.3733 54.4827 67.568 54.824C68.848 55.1653 69.8293 55.464 70.512 55.72L68.336 65.96C67.056 65.2773 65.0507 64.5947 62.32 63.912C59.5893 63.144 56.304 62.76 52.464 62.76C49.136 62.76 46.2347 63.4427 43.76 64.808C41.2853 66.088 40.048 68.136 40.048 70.952C40.048 72.4027 40.304 73.6827 40.816 74.792C41.4133 75.9013 42.2667 76.9253 43.376 77.864C44.5707 78.7173 46.0213 79.528 47.728 80.296C49.4347 81.064 51.4827 81.8747 53.872 82.728C57.0293 83.9227 59.8453 85.1173 62.32 86.312C64.7947 87.4213 66.8853 88.744 68.592 90.28C70.384 91.816 71.7493 93.6933 72.688 95.912C73.6267 98.0453 74.096 100.691 74.096 103.848C74.096 109.992 71.792 114.643 67.184 117.8C62.6613 120.957 56.176 122.536 47.728 122.536C41.84 122.536 37.232 122.024 33.904 121C30.576 120.061 28.3147 119.336 27.12 118.824L29.296 108.584C30.6613 109.096 32.8373 109.864 35.824 110.888C38.8107 111.912 42.7787 112.424 47.728 112.424ZM111.893 112.424C114.709 112.424 117.184 112.381 119.317 112.296C121.536 112.125 123.37 111.869 124.821 111.528V91.688C123.968 91.2613 122.56 90.92 120.597 90.664C118.72 90.3227 116.416 90.152 113.685 90.152C111.893 90.152 109.973 90.28 107.925 90.536C105.962 90.792 104.128 91.3467 102.421 92.2C100.8 92.968 99.4343 94.0773 98.325 95.528C97.2157 96.8933 96.661 98.728 96.661 101.032C96.661 105.299 98.0263 108.285 100.757 109.992C103.488 111.613 107.2 112.424 111.893 112.424ZM110.869 52.776C115.648 52.776 119.658 53.416 122.901 54.696C126.229 55.8907 128.874 57.64 130.837 59.944C132.885 62.1627 134.336 64.8507 135.189 68.008C136.042 71.08 136.469 74.4933 136.469 78.248V119.848C135.445 120.019 133.994 120.275 132.117 120.616C130.325 120.872 128.277 121.128 125.973 121.384C123.669 121.64 121.152 121.853 118.421 122.024C115.776 122.28 113.13 122.408 110.485 122.408C106.73 122.408 103.274 122.024 100.117 121.256C96.9597 120.488 94.229 119.293 91.925 117.672C89.621 115.965 87.829 113.747 86.549 111.016C85.269 108.285 84.629 105 84.629 101.16C84.629 97.4907 85.3543 94.3333 86.805 91.688C88.341 89.0427 90.389 86.9093 92.949 85.288C95.509 83.6667 98.4957 82.472 101.909 81.704C105.322 80.936 108.906 80.552 112.661 80.552C113.856 80.552 115.093 80.6373 116.373 80.808C117.653 80.8933 118.848 81.064 119.957 81.32C121.152 81.4907 122.176 81.6613 123.029 81.832C123.882 82.0027 124.48 82.1307 124.821 82.216V78.888C124.821 76.9253 124.608 75.0053 124.181 73.128C123.754 71.1653 122.986 69.4587 121.877 68.008C120.768 66.472 119.232 65.2773 117.269 64.424C115.392 63.4853 112.917 63.016 109.845 63.016C105.92 63.016 102.464 63.3147 99.477 63.912C96.5757 64.424 94.3997 64.9787 92.949 65.576L91.541 55.72C93.077 55.0373 95.637 54.3973 99.221 53.8C102.805 53.1173 106.688 52.776 110.869 52.776ZM202.448 87.848C202.448 80.0827 200.528 74.1093 196.688 69.928C192.848 65.7467 187.728 63.656 181.328 63.656C177.744 63.656 174.928 63.784 172.88 64.04C170.917 64.296 169.339 64.5947 168.144 64.936V106.92C169.595 108.115 171.685 109.267 174.416 110.376C177.147 111.485 180.133 112.04 183.376 112.04C186.789 112.04 189.691 111.443 192.08 110.248C194.555 108.968 196.56 107.261 198.096 105.128C199.632 102.909 200.741 100.349 201.424 97.448C202.107 94.4613 202.448 91.2613 202.448 87.848ZM214.864 87.848C214.864 92.8827 214.181 97.5333 212.816 101.8C211.536 106.067 209.616 109.736 207.056 112.808C204.496 115.88 201.339 118.269 197.584 119.976C193.915 121.683 189.691 122.536 184.912 122.536C181.072 122.536 177.659 122.024 174.672 121C171.771 119.976 169.595 118.995 168.144 118.056V144.68H156.24V56.488C159.056 55.8053 162.555 55.08 166.736 54.312C171.003 53.4587 175.909 53.032 181.456 53.032C186.576 53.032 191.184 53.8427 195.28 55.464C199.376 57.0853 202.875 59.3893 205.776 62.376C208.677 65.3627 210.896 69.032 212.432 73.384C214.053 77.6507 214.864 82.472 214.864 87.848ZM242.751 54.44H267.967V64.424H242.751V95.144C242.751 98.472 243.007 101.245 243.519 103.464C244.031 105.597 244.799 107.304 245.823 108.584C246.847 109.779 248.127 110.632 249.663 111.144C251.199 111.656 252.991 111.912 255.039 111.912C258.623 111.912 261.482 111.528 263.615 110.76C265.834 109.907 267.37 109.309 268.223 108.968L270.527 118.824C269.332 119.421 267.242 120.147 264.255 121C261.268 121.939 257.855 122.408 254.015 122.408C249.492 122.408 245.738 121.853 242.751 120.744C239.85 119.549 237.503 117.8 235.711 115.496C233.919 113.192 232.639 110.376 231.871 107.048C231.188 103.635 230.847 99.7093 230.847 95.272V35.88L242.751 33.832V54.44Z" fill="white"/>
<defs>
<linearGradient id="paint0_linear_56_10" x1="0" y1="2" x2="140.344" y2="253.768" gradientUnits="userSpaceOnUse">
<stop stop-color="#8085C6"/>
<stop offset="1" stop-color="#139BDA"/>
</linearGradient>
</defs>
</svg>
